<?xml version="1.0" encoding="utf-8"?>
<!-- Generator: Adobe Illustrator 18.1.1, SVG Export Plug-In . SVG Version: 6.00 Build 0)  -->
<svg version="1.1" id="Layer_1" xmlns="http://www.w3.org/2000/svg" xmlns:xlink="http://www.w3.org/1999/xlink" x="0px" y="0px"
	 viewBox="0 0 500 160" enable-background="new 0 0 500 160" xml:space="preserve">
<g>
	<path fill="#95D600" stroke="#95D600" stroke-linecap="round" stroke-linejoin="round" d="M51.9,158.4c0,0,111.8-170.4,448.3-155.6
		C500.2,2.8,199.3-9.7,51.9,158.4z"/>
	<path fill="#00953A" stroke="#00953A" stroke-linecap="round" stroke-linejoin="round" d="M0.1,62.6c0,0,79.9,12.1,118.1,86.5
		C118.2,149.1,94.9,74.6,0.1,62.6z"/>
	<g>
		<path fill="#231F20" d="M91.7,83.6H80.3l-11-34.2h8.8l7.8,26l7.9-26h8.8L91.7,83.6z"/>
		<path fill="#231F20" d="M107.4,44.5v-9.9h8.6v9.9H107.4z M107.4,83.6V49.3h8.6v34.2H107.4z"/>
		<path fill="#231F20" d="M141.1,56.5c-3.3,1.5-6,3-9.1,5v22.1h-8.6V49.3h7.2l0.6,3.8c1.9-1.3,6-3.7,9-4.5L141.1,56.5z"/>
		<path fill="#231F20" d="M146.1,44.5v-9.9h8.6v9.9H146.1z M146.1,83.6V49.3h8.6v34.2H146.1z"/>
		<path fill="#231F20" d="M161.4,60.7c0-7.6,3.4-12.1,11.3-12.1c3,0,6.5,0.4,9.1,1V35.3l8.6-1.2v49.4h-6.8l-0.8-2.9
			c-3,2.2-6.5,3.6-10.8,3.6c-6.9,0-10.5-4.1-10.5-11.9V60.7z M181.9,56.9c-2.3-0.5-5.1-0.9-7.6-0.9c-3.1,0-4.3,1.5-4.3,4.6v12.1
			c0,2.8,1.1,4.4,4.2,4.4c2.8,0,5.8-1.4,7.7-3.1V56.9z"/>
		<path fill="#231F20" d="M198,44.5v-9.9h8.6v9.9H198z M198,83.6V49.3h8.6v34.2H198z"/>
		<path fill="#231F20" d="M233.7,83c-1.8,0.8-5.3,1.3-7.5,1.3c-6.3,0-9.4-3-9.4-9.1V56.2h-5.1v-6.8h5.1v-8.5l8.6-1.2v9.7h8.8
			l-0.6,6.8h-8.2v17.9c0,1.8,0.8,3,3.1,3c1.3,0,2.8-0.3,4.3-0.7L233.7,83z"/>
		<path fill="#231F20" d="M259.6,83.6L255,97.4h-8.2l4.3-13.9h-3l-10.8-34.2h8.8l7.8,26l7.9-26h8.8L259.6,83.6z"/>
		<path fill="#68AD44" d="M287.4,79.2c3.4,0,7.1-0.6,10.8-1.6l0.8,4.7c-3.2,1.2-7.8,2-12.1,2c-10.1,0-13.6-4.9-13.6-12.6V61.4
			c0-7.1,3.2-12.8,13.4-12.8c10.1,0,12.9,5.8,12.9,12.9v7.2h-20.4v2.9C279.2,77,280.7,79.2,287.4,79.2z M279.2,63.8h14.7V61
			c0-4.8-1.6-7.5-7.2-7.5c-5.6,0-7.5,2.7-7.5,7.5V63.8z"/>
		<path fill="#68AD44" d="M327.4,83.6V57.4c0-2.3-1.1-3.2-3.3-3.2c-2.5,0-7.8,1.5-11.5,3.4v25.9h-5.9V49.3h4.8l0.6,3
			c3.8-1.8,9.7-3.7,13.8-3.7c5.5,0,7.5,3.4,7.5,8.7v26.2H327.4z"/>
		<path fill="#68AD44" d="M354.7,79.2c3.4,0,7.1-0.6,10.8-1.6l0.8,4.7c-3.2,1.2-7.8,2-12.1,2c-10.1,0-13.6-4.9-13.6-12.6V61.4
			c0-7.1,3.2-12.8,13.4-12.8c10.1,0,12.9,5.8,12.9,12.9v7.2h-20.4v2.9C346.5,77,348,79.2,354.7,79.2z M346.5,63.8h14.7V61
			c0-4.8-1.6-7.5-7.2-7.5c-5.6,0-7.5,2.7-7.5,7.5V63.8z"/>
		<path fill="#68AD44" d="M389.7,54.1c-3.2,1.5-7,3.9-9.8,5.9v23.6h-5.9V49.3h5.1l0.4,4.8c2.5-2,6-4.1,9.4-5.5L389.7,54.1z"/>
		<path fill="#68AD44" d="M422.7,52.8l-4.1,0.8c1.3,1.8,1.8,4.1,1.9,6.8v1.5c0,7.4-4.5,11.7-13.4,11.7c-1.3,0-2.5-0.1-3.5-0.2
			c-1.2,1-2.5,2.2-2.5,3.7c0,1.3,0.7,1.8,2.3,2c3.6,0.4,5.4,0.6,9.7,1c6.2,0.6,8.6,3,8.6,8.2c0,7.5-2.6,9.9-15,9.9
			c-3.2,0-8.6-0.6-12.4-1.6l0.8-4.6c3.6,0.8,8,1.4,11.5,1.4c8.7,0,9.6-1.2,9.6-4.8c0-2.9-1.1-3.4-5.1-3.7c-3.8-0.4-5.1-0.5-9.1-0.8
			c-5.1-0.4-6.7-3.1-6.7-6.3c0-2.5,1.4-4.6,3.2-6c-3.2-1.8-4.8-5.2-4.8-9.7v-1.5c0-7.5,3.6-11.7,13.4-11.7c1.8,0,4.1,0.2,5.8,0.7
			h9.8V52.8z M407,53.5c-5.7,0-7.8,1.9-7.8,7v1.5c0,5.2,2.2,6.8,7.8,6.8c5.6,0,7.8-2.3,7.8-6.8v-1.5C414.9,55.5,412.7,53.5,407,53.5
			z"/>
		<path fill="#68AD44" d="M440.4,83.6h-2.5l-11.1-34.2h5.8l9.4,29.5l9.5-29.5h5.8L446,83.6l-4.9,13.9h-5.6L440.4,83.6z"/>
	</g>
</g>
</svg>
